<svg width="75" height="34" viewBox="0 0 75 34" fill="none" xmlns="http://www.w3.org/2000/svg">
  <path class="letters" fill-rule="evenodd" clip-rule="evenodd" d="M0 9.71126C0 15.0525 0.022452 19.4365 0.0499261 19.4536C0.0774002 19.4707 0.116455 19.7731 0.136662 20.1255C0.281772 22.652 0.879585 24.8811 1.9558 26.9085C3.06038 28.9894 4.99739 30.908 7.03101 31.9355C9.67384 33.2708 11.9921 33.7723 15.5096 33.7698C17.5837 33.7682 19.0374 33.6149 20.5534 33.2379C22.4614 32.7633 24.6212 31.7467 25.8592 30.7406C25.9947 30.6305 26.1387 30.5404 26.1793 30.5404C26.2198 30.5404 26.5344 30.7243 26.8784 30.9491C28.9759 32.3202 31.4557 33.236 34.1782 33.645C34.9596 33.7623 35.3032 33.7709 40.1476 33.794C42.9748 33.8074 46.7304 33.7996 48.4933 33.7766L51.6986 33.7346V26.6416V19.5484H49.0108H46.323L46.0194 20.1574C45.6769 20.8445 44.9795 21.9857 44.5212 22.609C43.6959 23.7315 42.2335 25.2118 41.0704 26.1019C40.8229 26.2913 40.5735 26.4852 40.5163 26.5327C40.3836 26.6426 40.2363 26.6438 40.2363 26.5347C40.2363 26.4884 40.2581 26.4417 40.2848 26.4308C40.3114 26.4199 40.4429 26.1154 40.5768 25.7542C41.2372 23.9739 41.3131 22.2611 40.7993 20.7418C40.5073 19.8785 39.8014 18.7649 39.1263 18.1025L38.8334 17.8151L38.262 18.3644C37.3365 19.2542 36.8332 20.1341 36.4708 21.496C36.3432 21.9755 36.3162 22.2098 36.3122 22.8757C36.3051 24.0507 36.4912 24.8083 37.3658 27.1656C37.6168 27.8421 37.9012 28.6709 37.9979 29.0075C38.2321 29.8231 38.4729 31.251 38.4515 31.6966L38.4342 32.0555L38.3339 31.8475C38.2788 31.7332 38.0982 31.292 37.9326 30.8672C37.3559 29.3878 36.5264 28.0957 34.7478 25.9059C34.3098 25.3667 33.7878 24.7384 33.5877 24.5097C32.2489 22.9788 30.7059 20.8357 30.1215 19.6953C29.3507 18.1911 28.9959 16.4772 29.1311 14.9116C29.346 12.4218 30.5547 10.1304 33.2353 7.13046C33.6004 6.72197 34.8131 5.45095 35.9303 4.30594C37.0474 3.16093 38.1728 1.97778 38.4309 1.67678C38.689 1.37572 38.9335 1.12944 38.9742 1.12944C39.0974 1.12944 42.3237 4.837 43.678 6.53475C44.4334 7.48185 45.3872 8.84515 45.8197 9.59623C45.9138 9.75962 46.0903 10.1473 46.212 10.4578L46.4332 11.0222L49.8045 11.0375L53.1757 11.0529V22.4009V33.7488H59.1432H65.1107V22.4007V11.0526L69.8226 11.0374L74.5346 11.0222V5.52623V0.0302428L54.4755 0.012418C34.046 -0.00570394 33.5103 -0.000891247 32.1841 0.214017C30.198 0.535873 27.9858 1.38041 26.3062 2.45798C22.4342 4.94217 19.8439 8.9351 19.1317 13.5177C19.0317 14.1613 19.0038 14.736 18.9646 16.9638C18.9152 19.7727 18.8921 20.0209 18.6119 20.7357C18.256 21.6438 17.5649 22.2302 16.6111 22.4335C16.0948 22.5435 15.0186 22.5411 14.545 22.4288C13.3421 22.1437 12.6536 21.3876 12.3007 19.9643C12.215 19.6188 12.2016 18.5485 12.1733 9.80418L12.1418 0.0302428L6.07089 0.0150917L0 0V9.71126Z" fill="white"></path>
  <path class="fire" fill-rule="evenodd" clip-rule="evenodd" d="M38.1886 8.62311C35.7495 10.2338 33.8175 12.4456 32.9791 14.5872C32.566 15.6426 32.4729 16.1559 32.4729 17.3797C32.4729 18.2983 32.4923 18.5288 32.6105 19.0137C32.9902 20.5713 33.86 22.5774 35.1223 24.8067C35.8332 26.0621 36.7488 27.5315 36.7926 27.4874C36.8083 27.4716 36.608 26.9155 36.3476 26.2516C35.4603 23.9892 34.9008 22.1558 34.7161 20.9054C34.5995 20.1153 34.5967 18.9437 34.7099 18.2936C35.0526 16.3259 36.3233 14.5448 38.4747 13.0163L38.7517 12.8196L39.0651 13.0136C39.7017 13.4074 40.2825 13.8788 40.9233 14.5217C41.9149 15.5163 42.5348 16.5568 42.8784 17.8034C43.025 18.3351 43.0402 18.4841 43.0414 19.3999C43.0428 20.4972 42.9692 20.9812 42.6598 21.9102C42.57 22.1798 42.5183 22.4004 42.545 22.4004C42.6191 22.4004 43.1598 21.4916 43.4817 20.8259C43.8379 20.0893 44.148 19.1774 44.3204 18.3601C44.5072 17.4742 44.507 16.0934 44.3198 15.2136C43.876 13.1273 42.7004 11.2782 40.7141 9.54246C40.0709 8.98038 39.0195 8.19995 38.9055 8.19995C38.8637 8.19995 38.5411 8.39038 38.1886 8.62311Z" fill="#0070CB"></path>
</svg>
